<svg width="24" height="24" viewBox="0 0 24 24" fill="none" xmlns="http://www.w3.org/2000/svg">
<path d="M14 19C17.771 19 19.657 19 20.828 17.828C22 16.657 22 14.771 22 11C22 7.229 22 5.343 20.828 4.172C19.657 3 17.771 3 14 3H10C6.229 3 4.343 3 3.172 4.172C2 5.343 2 7.229 2 11C2 14.771 2 16.657 3.172 17.828C3.825 18.482 4.7 18.771 6 18.898" stroke="white" stroke-width="1.4" stroke-linecap="round" stroke-linejoin="round"/>
<path d="M15.207 6.793C15.1139 6.69977 15.0032 6.62586 14.8815 6.57553C14.7597 6.5252 14.6292 6.49943 14.4974 6.49971C14.3656 6.49999 14.2352 6.52631 14.1136 6.57715C13.9921 6.628 13.8817 6.70238 13.789 6.796L9.23901 11.393C8.96354 11.6712 8.77579 12.0241 8.69901 12.408L8.51901 13.304C8.48665 13.4655 8.49467 13.6325 8.54236 13.7901C8.59006 13.9477 8.67595 14.0911 8.79241 14.2076C8.90886 14.3241 9.05228 14.4099 9.20991 14.4576C9.36755 14.5053 9.53452 14.5134 9.69601 14.481L10.592 14.301C10.9759 14.2242 11.3288 14.0365 11.607 13.761L16.204 9.211C16.2976 9.11827 16.372 9.00795 16.4229 8.88638C16.4737 8.76482 16.5 8.6344 16.5003 8.50262C16.5006 8.37085 16.4748 8.24032 16.4245 8.11854C16.3741 7.99676 16.3002 7.88613 16.207 7.793L15.207 6.793V6.793Z" stroke="white" stroke-width="1.4" stroke-linecap="round" stroke-linejoin="round"/>
<path d="M12.5 8.5L14.5 10.5" stroke="white" stroke-width="1.4"/>
<path d="M14 19C12.764 19 11.402 19.5 10.159 20.145C8.161 21.182 7.162 21.701 6.67 21.37C6.178 21.04 6.271 20.015 6.458 17.966" stroke="white" stroke-width="1.4" stroke-linecap="round"/>
</svg>
