<svg width="14" height="14" viewBox="0 0 14 14" fill="none" xmlns="http://www.w3.org/2000/svg">
<path d="M6.125 14H2.1C0.933333 14 0 13.0667 0 11.9583V3.15C0 2.04167 0.933333 1.10834 2.04167 1.10834H11.9C13.0083 1.10834 13.9417 2.04167 13.9417 3.15V6.3C13.9417 6.53334 13.7083 6.76667 13.475 6.76667C13.2417 6.76667 13.0083 6.53334 13.0083 6.3V3.15C13.0083 2.56667 12.5417 2.04167 11.9 2.04167H2.1C1.51667 2.04167 0.991667 2.50834 0.991667 3.15V11.9583C0.991667 12.5417 1.45833 13.0667 2.1 13.0667H6.125C6.35833 13.0667 6.59167 13.3 6.59167 13.5333C6.59167 13.7667 6.35833 14 6.125 14Z" fill="#888888"/>
<path d="M3.44164 3.15C3.14998 3.15 2.97498 2.91667 2.97498 2.68333V0.466667C2.97498 0.233333 3.14998 0 3.44164 0C3.73331 0 3.90831 0.233333 3.90831 0.466667V2.68333C3.90831 2.91667 3.67498 3.15 3.44164 3.15Z" fill="#888888"/>
<path d="M6.99999 3.15C6.76666 3.15 6.53333 2.91667 6.53333 2.68333V0.466667C6.53333 0.233333 6.76666 0 6.99999 0C7.23333 0 7.46666 0.233333 7.46666 0.466667V2.68333C7.46666 2.91667 7.23333 3.15 6.99999 3.15Z" fill="#888888"/>
<path d="M10.5583 3.15C10.325 3.15 10.0917 2.91667 10.0917 2.68333V0.466667C10.0917 0.233333 10.325 0 10.5583 0C10.7917 0 11.025 0.233333 11.025 0.466667V2.68333C11.025 2.91667 10.85 3.15 10.5583 3.15Z" fill="#888888"/>
<path d="M5.77502 6.24168C6.03275 6.24168 6.24168 6.03275 6.24168 5.77502C6.24168 5.51728 6.03275 5.30835 5.77502 5.30835C5.51728 5.30835 5.30835 5.51728 5.30835 5.77502C5.30835 6.03275 5.51728 6.24168 5.77502 6.24168Z" fill="#888888"/>
<path d="M5.77502 8.63335C6.03275 8.63335 6.24168 8.42441 6.24168 8.16668C6.24168 7.90895 6.03275 7.70001 5.77502 7.70001C5.51728 7.70001 5.30835 7.90895 5.30835 8.16668C5.30835 8.42441 5.51728 8.63335 5.77502 8.63335Z" fill="#888888"/>
<path d="M5.77502 11.025C6.03275 11.025 6.24168 10.8161 6.24168 10.5583C6.24168 10.3006 6.03275 10.0917 5.77502 10.0917C5.51728 10.0917 5.30835 10.3006 5.30835 10.5583C5.30835 10.8161 5.51728 11.025 5.77502 11.025Z" fill="#888888"/>
<path d="M3.44164 6.24168C3.69938 6.24168 3.90831 6.03275 3.90831 5.77502C3.90831 5.51728 3.69938 5.30835 3.44164 5.30835C3.18391 5.30835 2.97498 5.51728 2.97498 5.77502C2.97498 6.03275 3.18391 6.24168 3.44164 6.24168Z" fill="#888888"/>
<path d="M8.16668 6.24168C8.42441 6.24168 8.63334 6.03275 8.63334 5.77502C8.63334 5.51728 8.42441 5.30835 8.16668 5.30835C7.90895 5.30835 7.70001 5.51728 7.70001 5.77502C7.70001 6.03275 7.90895 6.24168 8.16668 6.24168Z" fill="#888888"/>
<path d="M10.5 6.24168C10.7577 6.24168 10.9667 6.03275 10.9667 5.77502C10.9667 5.51728 10.7577 5.30835 10.5 5.30835C10.2423 5.30835 10.0333 5.51728 10.0333 5.77502C10.0333 6.03275 10.2423 6.24168 10.5 6.24168Z" fill="#888888"/>
<path d="M3.44164 8.63335C3.69938 8.63335 3.90831 8.42441 3.90831 8.16668C3.90831 7.90895 3.69938 7.70001 3.44164 7.70001C3.18391 7.70001 2.97498 7.90895 2.97498 8.16668C2.97498 8.42441 3.18391 8.63335 3.44164 8.63335Z" fill="#888888"/>
<path d="M3.44164 11.025C3.69938 11.025 3.90831 10.8161 3.90831 10.5583C3.90831 10.3006 3.69938 10.0917 3.44164 10.0917C3.18391 10.0917 2.97498 10.3006 2.97498 10.5583C2.97498 10.8161 3.18391 11.025 3.44164 11.025Z" fill="#888888"/>
<path d="M10.6167 14C8.75002 14 7.29169 12.4833 7.29169 10.675C7.29169 8.80834 8.80835 7.35001 10.6167 7.35001C12.425 7.35001 13.9417 8.86667 13.9417 10.675C14 12.4833 12.4834 14 10.6167 14ZM10.6167 8.22501C9.27502 8.22501 8.22502 9.27501 8.22502 10.6167C8.22502 11.9583 9.27502 13.0083 10.6167 13.0083C11.9584 13.0083 13.0084 11.9583 13.0084 10.6167C13.0084 9.27501 11.9584 8.22501 10.6167 8.22501Z" fill="#888888"/>
<path d="M11.4334 11.1417H10.6167C10.3834 11.1417 10.15 10.9083 10.15 10.675V9.56667C10.15 9.33334 10.3834 9.10001 10.6167 9.10001C10.85 9.10001 11.0834 9.33334 11.0834 9.56667V10.2083H11.4334C11.6667 10.2083 11.9 10.4417 11.9 10.675C11.9 10.9083 11.6667 11.1417 11.4334 11.1417Z" fill="#888888"/>
</svg>
