<svg width="12" height="12" viewBox="0 0 12 12" fill="none" xmlns="http://www.w3.org/2000/svg">
<path d="M5.70172 6.76714L5.70153 6.76703C5.52034 6.66182 5.415 6.46888 5.415 6.264V3.432C5.415 3.20028 5.60028 3.015 5.832 3.015H5.868C6.09972 3.015 6.285 3.20028 6.285 3.432V6.156V6.16454L6.29234 6.1689L8.61434 7.5489L8.61456 7.54902C8.81709 7.66475 8.88084 7.92523 8.75924 8.12212L8.75907 8.12239C8.64354 8.3188 8.38892 8.37714 8.19161 8.26107L5.70172 6.76714ZM0.015 6C0.015 2.69626 2.6903 0.015 5.994 0.015C9.30373 0.015 11.985 2.69629 11.985 6C11.985 9.30371 9.30373 11.985 5.994 11.985C2.6903 11.985 0.015 9.30374 0.015 6ZM1.185 6C1.185 8.66028 3.33972 10.815 6 10.815C8.66028 10.815 10.815 8.66028 10.815 6C10.815 3.33972 8.66028 1.185 6 1.185C3.33972 1.185 1.185 3.33972 1.185 6Z" fill="#FFCE4F" stroke="white" stroke-width="0.03"/>
</svg>
