<svg width="18" height="18" viewBox="0 0 18 18" fill="none" xmlns="http://www.w3.org/2000/svg">
<path d="M11.0546 8.61177L9.96119 9.10203C9.61655 8.63466 9.18781 8.23325 8.69845 7.9196L9.12338 6.80329C9.20466 6.58982 9.09664 6.3513 8.88227 6.27047L7.79438 5.86021C7.69143 5.82137 7.57719 5.82484 7.47681 5.86988C7.37643 5.91492 7.29814 5.99774 7.25912 6.1003L6.83419 7.21661C6.25882 7.12867 5.67067 7.14653 5.10136 7.26926L4.60885 6.18088C4.5636 6.08096 4.48041 6.00302 4.37737 5.96418C4.27442 5.92534 4.16018 5.92881 4.0598 5.97385L2.99915 6.44948C2.79009 6.5432 2.6971 6.788 2.79117 6.99594L3.28368 8.08432C2.81416 8.42739 2.41091 8.85418 2.09582 9.3413L0.974395 8.91831C0.760023 8.83748 0.520327 8.94492 0.439128 9.15832L0.0269048 10.2412C-0.0120343 10.3436 -0.00863022 10.4573 0.0366188 10.5573C0.0818679 10.6572 0.16506 10.7351 0.268095 10.774L1.38944 11.1969C1.3006 11.7702 1.31895 12.3567 1.44225 12.9219L0.348962 13.4121C0.248584 13.4571 0.170291 13.5399 0.131268 13.6425C0.0923293 13.7449 0.0957334 13.8587 0.140982 13.9586L0.618796 15.0145C0.712947 15.2226 0.958704 15.3153 1.16776 15.2215L2.26113 14.7313C2.60577 15.1986 3.03451 15.6001 3.52387 15.9137L3.09894 17.03C3.06 17.1324 3.06349 17.2461 3.10866 17.3461C3.15391 17.4461 3.2371 17.524 3.34013 17.5628L4.42794 17.9731C4.64231 18.0539 4.88201 17.9465 4.9632 17.7331L5.38813 16.6168C5.96342 16.7047 6.55174 16.6869 7.12096 16.5641L7.61347 17.6526C7.65872 17.7525 7.74191 17.8304 7.84495 17.8693C7.9479 17.9081 8.06214 17.9047 8.16252 17.8596L9.22318 17.384C9.32355 17.339 9.40185 17.2561 9.44087 17.1537C9.47989 17.0511 9.47649 16.9374 9.43115 16.8375L8.93865 15.7492C9.40824 15.4061 9.81141 14.9794 10.1265 14.4922L11.2479 14.9152C11.4623 14.996 11.702 14.8886 11.7832 14.6752L12.1953 13.5922C12.2133 13.545 12.2222 13.4954 12.2222 13.4459C12.2222 13.3879 12.21 13.33 12.1856 13.2761C12.1404 13.1762 12.0572 13.0983 11.9541 13.0594L10.8328 12.6365C10.9216 12.0632 10.9033 11.4766 10.78 10.9115L11.8733 10.4213C11.9737 10.3763 12.0519 10.2935 12.091 10.1909C12.13 10.0884 12.1266 9.97462 12.0813 9.87478L11.6035 8.81897C11.5094 8.61078 11.2636 8.51805 11.0546 8.61177ZM7.10842 9.29658C8.19606 9.70676 8.92677 10.7599 8.92677 11.9172C8.92677 12.2558 8.865 12.5896 8.74329 12.9094C8.47694 13.6093 7.95271 14.164 7.26717 14.4713C6.58171 14.7787 5.81696 14.8019 5.1139 14.5368C4.02626 14.1266 3.29555 13.0735 3.29555 11.9162C3.29555 11.5776 3.35732 11.2438 3.47903 10.924C3.74538 10.2241 4.26961 9.6694 4.95507 9.36204C5.64061 9.05459 6.40536 9.03137 7.10842 9.29658ZM12.7771 0.108818C12.696 0.18287 12.6477 0.286095 12.643 0.395519L12.6095 1.17389C12.2404 1.24554 11.8842 1.37497 11.5553 1.55679L11.0261 0.982808C10.8711 0.814622 10.6085 0.803465 10.4396 0.957766L9.81573 1.5277C9.73461 1.60175 9.68638 1.70498 9.68164 1.81448C9.67758 1.92374 9.71618 2.03085 9.79057 2.1116L10.3198 2.6855C10.1096 2.99617 9.94965 3.33841 9.84637 3.69825L9.06443 3.66486C8.83536 3.65511 8.64174 3.83206 8.63195 4.06008L8.59567 4.90217C8.58703 5.12903 8.76363 5.32292 8.99261 5.33268L9.77455 5.36607C9.84653 5.73335 9.97655 6.08799 10.1591 6.41543L9.58251 6.94222C9.50139 7.01627 9.45316 7.1195 9.44842 7.22893C9.44394 7.33835 9.48296 7.44529 9.55735 7.52604L10.1299 8.14705C10.2849 8.31524 10.5475 8.32639 10.7164 8.17209L11.293 7.6453C11.6051 7.85448 11.9488 8.01374 12.3104 8.11655L12.2769 8.89484C12.2676 9.12187 12.4447 9.31568 12.6738 9.32543L13.5198 9.36154C13.6298 9.36625 13.7371 9.32725 13.8182 9.25311C13.8994 9.17906 13.9476 9.07583 13.9523 8.96633L13.9858 8.18804C14.3548 8.11639 14.7111 7.98696 15.04 7.80522L15.5693 8.37912C15.6436 8.45987 15.7473 8.50788 15.8573 8.5126C15.9673 8.51731 16.0746 8.4783 16.1557 8.40416L16.7796 7.83423C16.8607 7.76018 16.909 7.65695 16.9137 7.54745C16.9181 7.43843 16.8792 7.33108 16.8048 7.25033L16.2756 6.67643C16.4857 6.36576 16.6457 6.02352 16.749 5.66368L17.5309 5.69707C17.76 5.70682 17.9536 5.52995 17.9634 5.30193L17.9997 4.45984C17.9999 4.45389 18 4.44802 18 4.44216C18 4.33885 17.9611 4.23909 17.8907 4.16273C17.8163 4.08198 17.7126 4.03396 17.6027 4.02925L16.8208 3.99586C16.7488 3.62858 16.6188 3.27394 16.4362 2.9465L17.0128 2.41971C17.0939 2.34565 17.1422 2.24243 17.1469 2.13301C17.1517 2.02308 17.1124 1.91655 17.038 1.83589L16.4654 1.21488C16.3104 1.04669 16.0478 1.03554 15.8789 1.18984L15.3023 1.71663C14.9902 1.50745 14.6465 1.34819 14.2849 1.24538L14.3185 0.467091C14.3273 0.239316 14.1506 0.0463371 13.9215 0.0365021L13.0756 0.000385871C12.9656 -0.00432499 12.8582 0.0346839 12.7771 0.108818ZM15.2317 4.76357C15.186 5.82509 14.2812 6.65172 13.2148 6.60618C12.1758 6.56188 11.3619 5.71698 11.3619 4.68274C11.3619 4.65481 11.3625 4.62671 11.3637 4.59852C11.4095 3.53701 12.3142 2.71037 13.3806 2.75591C14.4477 2.80145 15.2768 3.69338 15.2317 4.76357Z" fill="white"/>
</svg>
