<svg width="24" height="24" viewBox="0 0 24 24" fill="none" xmlns="http://www.w3.org/2000/svg">
<path d="M12 24C5.4 24 0 18.6 0 12C0 5.4 5.4 0 12 0C18.6 0 24 5.4 24 12C24 18.6 18.6 24 12 24Z" fill="#3E5C9A"/>
<path d="M10.2 19.3H13.1V12H15.1L15.3 9.60001H13C13 9.60001 13 8.70001 13 8.20001C13 7.60001 13.1 7.40001 13.7 7.40001C14.1 7.40001 15.3 7.40001 15.3 7.40001V4.70001C15.3 4.70001 13.6 4.70001 13.3 4.70001C11.1 4.70001 10.1 5.70001 10.1 7.50001C10.1 9.10001 10.1 9.50001 10.1 9.50001H8.7V12H10.2V19.3Z" fill="white"/>
</svg>
