<svg width="22" height="22" viewBox="0 0 22 22" fill="none" xmlns="http://www.w3.org/2000/svg">
<path d="M11 16.5C14.0376 16.5 16.5 14.0376 16.5 11C16.5 7.96243 14.0376 5.5 11 5.5C7.96243 5.5 5.5 7.96243 5.5 11C5.5 14.0376 7.96243 16.5 11 16.5Z" stroke="#00B14F" stroke-width="2" stroke-linecap="round" stroke-linejoin="round"/>
<path d="M11 13.75C12.5188 13.75 13.75 12.5188 13.75 11C13.75 9.48122 12.5188 8.25 11 8.25C9.48122 8.25 8.25 9.48122 8.25 11C8.25 12.5188 9.48122 13.75 11 13.75Z" fill="#00B14F"/>
<line x1="11.083" y1="2.83301" x2="11.083" y2="4.49967" stroke="#00B14F" stroke-width="2" stroke-linecap="round" stroke-linejoin="round"/>
<line x1="2.83301" y1="10.917" x2="4.49967" y2="10.917" stroke="#00B14F" stroke-width="2" stroke-linecap="round" stroke-linejoin="round"/>
<line x1="11.083" y1="17.5" x2="11.083" y2="19.1667" stroke="#00B14F" stroke-width="2" stroke-linecap="round" stroke-linejoin="round"/>
<line x1="17.5" y1="10.917" x2="19.1667" y2="10.917" stroke="#00B14F" stroke-width="2" stroke-linecap="round" stroke-linejoin="round"/>
</svg>
