<svg width="24" height="24" viewBox="0 0 24 24" fill="none" xmlns="http://www.w3.org/2000/svg">
<path d="M12 24C5.4 24 0 18.6 0 12C0 5.4 5.4 0 12 0C18.6 0 24 5.4 24 12C24 18.6 18.6 24 12 24Z" fill="#DF4B38"/>
<path d="M13.5 11.7H8.70001V13.1H12C11.6 14.8 10.4 15.8 8.80001 15.8C6.70001 15.8 5.00001 14.1 5.00001 12C5.00001 9.90005 6.70001 8.20005 8.80001 8.20005C9.80001 8.20005 10.7 8.60005 11.4 9.20005L12.5 8.30005C11.6 7.40005 10.3 6.80005 8.80001 6.80005C5.90001 6.80005 3.60001 9.10005 3.60001 12C3.60001 14.9 5.90001 17.2 8.80001 17.2C11.6 17.2 13.6 15.1 13.6 12.2L13.5 11.7Z" fill="white"/>
<path d="M20.5 11.7H18.5V9.70004H17.2V11.7H15.2V13H17.2V15H18.5V13H20.5V11.7Z" fill="white"/>
</svg>
