<svg width="18" height="18" viewBox="0 0 18 18" fill="none" xmlns="http://www.w3.org/2000/svg">
<path d="M10.5861 2.39996C11.46 2.39996 11.897 3.00188 11.897 3.69158C11.897 4.55288 11.1378 5.3495 10.1498 5.3495C9.32217 5.3495 8.83957 4.8545 8.86239 4.0361C8.86239 3.34772 9.43696 2.39996 10.5861 2.39996ZM7.89717 15.6C7.20717 15.6 6.70174 15.1696 7.18435 13.2741L7.97609 9.9134C8.1137 9.37616 8.13652 9.16034 7.97609 9.16034C7.76935 9.16034 6.87457 9.53126 6.34435 9.89756L6 9.31676C7.67739 7.874 9.60717 7.02854 10.4354 7.02854C11.1248 7.02854 11.2396 7.86872 10.8952 9.16034L9.98804 12.6927C9.82761 13.3164 9.89609 13.5315 10.0572 13.5315C10.2639 13.5315 10.9422 13.2728 11.6087 12.7349L12 13.2721C10.3683 14.9532 8.58587 15.6 7.89717 15.6Z" fill="#008DC9"/>
</svg>
