<svg width="24" height="24" viewBox="0 0 24 24" fill="none" xmlns="http://www.w3.org/2000/svg">
<path d="M12 24C5.4 24 0 18.6 0 12C0 5.4 5.4 0 12 0C18.6 0 24 5.4 24 12C24 18.6 18.6 24 12 24Z" fill="#117BB8"/>
<path d="M9.10001 9.29999H6.60001V17.3H9.10001V9.29999Z" fill="white"/>
<path d="M7.8 8.29999C8.6 8.29999 9.3 7.59999 9.3 6.79999C9.3 5.99999 8.6 5.29999 7.8 5.29999C7 5.29999 6.3 5.99999 6.3 6.79999C6.3 7.59999 7 8.29999 7.8 8.29999Z" fill="white"/>
<path d="M13 13.1C13 12 13.5 11.3 14.5 11.3C15.4 11.3 15.9 11.9 15.9 13.1C15.9 14.3 15.9 17.3 15.9 17.3H18.4C18.4 17.3 18.4 14.4 18.4 12.2C18.4 10.1 17.2 9 15.5 9C13.8 9 13.1 10.3 13.1 10.3V9.3H10.7V17.3H13C13 17.3 13 14.4 13 13.1Z" fill="white"/>
</svg>
