<svg width="15" height="18" viewBox="0 0 15 18" fill="none" xmlns="http://www.w3.org/2000/svg">
<path d="M7.50122 18C8.58886 18 9.47874 17.1692 9.47874 16.1538H5.52369C5.52369 17.1692 6.40369 18 7.50122 18ZM13.4338 12.4615V7.84615C13.4338 5.01231 11.8122 2.64 8.98436 2.01231V1.38462C8.98436 0.618462 8.32189 0 7.50122 0C6.68055 0 6.01808 0.618462 6.01808 1.38462V2.01231C3.18033 2.64 1.56865 5.00308 1.56865 7.84615V12.4615L0.293145 13.6523C-0.329775 14.2338 0.10528 15.2308 0.985278 15.2308H14.0073C14.8873 15.2308 15.3322 14.2338 14.7093 13.6523L13.4338 12.4615Z" fill="#00B14F"/>
</svg>
