<svg width="36" height="36" viewBox="0 0 36 36" fill="none" xmlns="http://www.w3.org/2000/svg">
<g clip-path="url(#clip0_363_3988)">
<path d="M30.7257 5.27016C23.6952 -1.75821 12.2982 -1.75652 5.26979 5.27403C-1.75858 12.3046 -1.75689 23.7015 5.27365 30.7299C12.3042 37.7583 23.7012 37.7566 30.7295 30.726C34.1049 27.3496 36.0007 22.7705 35.9997 17.9962C35.9987 13.2226 34.1016 8.64502 30.7257 5.27016ZM27.26 25.0738C27.2592 25.0746 27.2585 25.0754 27.2576 25.0762V25.0702L26.3456 25.9762C25.1661 27.1706 23.4483 27.662 21.8156 27.2722C20.1706 26.8319 18.6069 26.131 17.1836 25.1962C15.8613 24.3511 14.6359 23.3633 13.5296 22.2502C12.5117 21.2397 11.5972 20.1302 10.7996 18.9382C9.92715 17.6556 9.23661 16.2583 8.74758 14.7862C8.18698 13.0568 8.65154 11.1591 9.94761 9.88421L11.0156 8.81623C11.3125 8.51796 11.795 8.51691 12.0932 8.81384C12.094 8.81461 12.0948 8.81539 12.0956 8.81623L15.4676 12.1882C15.7658 12.4851 15.7669 12.9676 15.4699 13.2658C15.4692 13.2666 15.4684 13.2674 15.4676 13.2682L13.4876 15.2482C12.9194 15.8101 12.848 16.7031 13.3196 17.3482C14.0357 18.3311 14.8282 19.2559 15.6896 20.1143C16.65 21.0788 17.6941 21.9562 18.8096 22.7363C19.4541 23.1859 20.328 23.1101 20.8856 22.5563L22.7995 20.6123C23.0965 20.314 23.5789 20.313 23.8771 20.6099C23.8779 20.6107 23.8787 20.6114 23.8795 20.6123L27.2576 23.9963C27.5559 24.2931 27.5569 24.7756 27.26 25.0738Z" fill="#00B14F"/>
</g>
<defs>
<clipPath id="clip0_363_3988">
<rect width="36" height="36" fill="white"/>
</clipPath>
</defs>
</svg>
