<svg width="18" height="18" viewBox="0 0 18 18" fill="none" xmlns="http://www.w3.org/2000/svg">
<path d="M17.3077 16.6092H6.27979L15.9376 6.90809L16.9166 5.92508C18.2583 4.5655 18.2535 2.37197 16.9058 1.0185C15.5583 -0.335302 13.3746 -0.340056 12.0211 1.00764L11.0424 1.99099L1.25177 11.8255L1.24534 11.8337C1.1899 11.8928 1.14494 11.961 1.11249 12.0354C1.10438 12.0551 1.09863 12.0737 1.09187 12.0931C1.08072 12.1192 1.07125 12.1461 1.06348 12.1732L0.0145358 17.1606C0.00777494 17.2 0.00473257 17.2397 0.00473257 17.2795C0.00473257 17.2886 0 17.2954 0 17.3046V17.3151C0.00202829 17.3956 0.0179161 17.475 0.0469877 17.5501C0.0540865 17.5674 0.0608474 17.5834 0.0692984 17.6C0.101074 17.672 0.145358 17.7379 0.199444 17.7949C0.329928 17.9267 0.507399 18.0007 0.692308 18H17.3077C17.69 18 18 17.6886 18 17.3046C18 16.9205 17.69 16.6092 17.3077 16.6092ZM4.26472 15.836L1.59217 16.4007L2.15738 13.7135L3.2124 14.7732L4.26472 15.836ZM13 1.99099C13.8225 1.2039 15.1152 1.2039 15.9376 1.99099C16.7489 2.80558 16.7489 4.12679 15.9376 4.94172L15.4475 5.4334L12.5106 2.48334L13 1.99099ZM11.5319 3.46602L13 4.94104L14.4692 6.41641L5.65678 15.2676L4.18833 13.7929L2.72021 12.3172L11.5319 3.46602Z" fill="#00B14F"/>
</svg>
