<svg width="36" height="36" viewBox="0 0 36 36" fill="none" xmlns="http://www.w3.org/2000/svg">
<g clip-path="url(#clip0_363_3994)">
<path d="M18.0047 0C8.06249 0 0.00468445 8.05781 0.00468445 18C0.00468445 27.9422 8.06249 36 18.0047 36C27.9469 36 36.0047 27.9422 36.0047 18C36.0047 8.05781 27.9469 0 18.0047 0ZM27.9539 14.8711L22.0758 19.2727C21.8719 19.4344 21.5836 19.4484 21.3656 19.3078C21.1476 19.1672 21.0351 18.907 21.0914 18.6539L21.457 16.4812H15.8672C15.5226 16.4812 15.2484 16.7555 15.2484 17.1V26.4094C15.2484 26.7539 14.9672 27.0281 14.6297 27.0281H12.1476C11.8031 27.0281 11.5289 26.7539 11.5289 26.4094V14.618C11.5289 13.5914 12.3586 12.7547 13.3922 12.7547H21.464L21.0984 10.5539C21.0422 10.3008 21.1547 10.0406 21.3726 9.9C21.5906 9.75938 21.8789 9.77344 22.0828 9.93516L27.9609 14.3438C28.0453 14.4 28.1015 14.4984 28.1015 14.6039C28.1015 14.7094 28.0383 14.8078 27.9539 14.8711Z" fill="#E33922"/>
</g>
<defs>
<clipPath id="clip0_363_3994">
<rect width="36" height="36" fill="white"/>
</clipPath>
</defs>
</svg>
