<svg width="18" height="18" viewBox="0 0 18 18" fill="none" xmlns="http://www.w3.org/2000/svg">
<g clip-path="url(#clip0_145_4977)">
<path d="M8.87584 13.8595C8.87584 13.6198 8.89236 13.3884 8.92542 13.157C8.46261 13.1487 7.9998 13.0578 7.55352 12.8843C5.95848 12.281 4.8841 10.7273 4.8841 9.01651C4.8841 8.52065 4.97501 8.02478 5.15683 7.5537C5.54526 6.52065 6.31385 5.70247 7.32212 5.24792C8.33038 4.79337 9.45435 4.76032 10.4874 5.14875C12.0577 5.74379 13.1155 7.24792 13.1568 8.91734C13.9833 8.80164 14.8345 8.88428 15.6362 9.19007C15.7767 9.23965 15.9089 9.29751 16.0329 9.36362C16.0659 8.75205 16.0163 8.13222 15.8841 7.52891L17.4874 6.80164C17.6362 6.73552 17.7519 6.61156 17.8097 6.4628C17.8676 6.31403 17.8593 6.14048 17.7932 5.99999L17.0907 4.438C16.9502 4.13222 16.5948 3.99172 16.2808 4.13222L14.6775 4.85949C14.1734 4.17354 13.537 3.5785 12.818 3.11569L13.4461 1.47106C13.5618 1.15701 13.4048 0.80164 13.0907 0.685938L11.4957 0.0826323C11.3469 0.0247811 11.1734 0.0330455 11.0329 0.0991612C10.8841 0.165277 10.7684 0.289244 10.7105 0.438004L10.0824 2.08263C9.23947 1.9504 8.3717 1.97519 7.53699 2.15701L6.81798 0.553707C6.75187 0.404946 6.6279 0.289244 6.47914 0.231393C6.33038 0.173541 6.15683 0.181806 6.01633 0.247921L4.45435 0.950401C4.14856 1.0909 4.00807 1.44627 4.14856 1.76032L4.87583 3.36362C4.18988 3.86776 3.59484 4.50412 3.13203 5.22313L1.4874 4.59503C1.15683 4.47106 0.809719 4.62809 0.685752 4.94213L0.0824461 6.54544C0.0245949 6.6942 0.0245949 6.85949 0.0907106 7.00825C0.165091 7.15701 0.280793 7.27271 0.437818 7.33056L2.08245 7.95866C1.95021 8.80164 1.97501 9.66941 2.15683 10.5041L0.553521 11.2314C0.40476 11.2975 0.289058 11.4215 0.231206 11.5702C0.173355 11.719 0.18162 11.8925 0.247735 12.033L0.950215 13.595C1.09071 13.9008 1.44608 14.0413 1.76013 13.9008L3.36344 13.1735C3.86757 13.8595 4.50393 14.4545 5.22294 14.9173L4.59484 16.562C4.53699 16.7107 4.54526 16.8843 4.61137 17.0248C4.67749 17.1735 4.80146 17.2892 4.95022 17.3471L6.54526 17.9504C6.85931 18.0661 7.21468 17.9091 7.33038 17.595L7.95848 15.9504C8.42955 16.0248 8.90063 16.0413 9.3717 16.0248C9.04939 15.3636 8.87584 14.6281 8.87584 13.8595Z" fill="#00B14F"/>
<path d="M13.8681 9.72754C11.5871 9.72754 9.73584 11.5788 9.73584 13.8598C9.73584 16.1408 11.5871 17.992 13.8681 17.992C16.1491 17.992 18.0003 16.1408 18.0003 13.8598C18.0003 11.5788 16.1491 9.72754 13.8681 9.72754ZM16.1739 12.7771L13.5292 15.397C13.3722 15.554 13.1243 15.5622 12.959 15.4052L11.5623 14.1325C11.397 13.9755 11.3887 13.7193 11.5292 13.554C11.6863 13.3887 11.9425 13.3804 12.1077 13.5292L13.2234 14.5457L15.5871 12.1821C15.7524 12.0168 16.0086 12.0168 16.1739 12.1821C16.3391 12.3556 16.3391 12.6118 16.1739 12.7771Z" fill="#00B14F"/>
</g>
<defs>
<clipPath id="clip0_145_4977">
<rect width="18" height="18" fill="white"/>
</clipPath>
</defs>
</svg>
