<svg width="24" height="24" viewBox="0 0 24 24" fill="none" xmlns="http://www.w3.org/2000/svg">
<path d="M12 24C5.4 24 0 18.6 0 12C0 5.4 5.4 0 12 0C18.6 0 24 5.4 24 12C24 18.6 18.6 24 12 24Z" fill="#C3271A"/>
<path d="M20.6 7.60001C20.4 6.90001 19.8 6.20001 19 6.00001C17.6 5.60001 12 5.60001 12 5.60001C12 5.60001 6.4 5.70001 5 6.00001C4.2 6.20001 3.6 6.90001 3.4 7.60001C3 9.10001 3 12 3 12C3 12 3 14.9 3.4 16.4C3.6 17.1 4.2 17.8 5 18C6.4 18.4 12 18.4 12 18.4C12 18.4 17.6 18.4 19 18C19.8 17.8 20.4 17.2 20.6 16.4C21 14.9 21 12 21 12C21 12 21 9.10001 20.6 7.60001Z" fill="white"/>
<path d="M10.2 14.7V9.30002L14.9 12L10.2 14.7Z" fill="#C3271A"/>
</svg>
